# xmcd
#
# Track frame offsets:
#	150
#	15018
#	28127
#	38265
#	49524
#	61454
#	82447
#	101826
#	110302
#	122254
#	132675
#	142353
#	155851
#
# Disc length: 2236 seconds
#
# Revision: 0
# Processed by: cddbd v1.5.2PL0 Copyright (c) Steve Scherf et al.
# Submitted via: dBpowerAMP V4.0
#
DISCID=b208ba0d
DTITLE=R.T. and the 44s - Ramble On
DYEAR=2012
DGENRE=Blues
TTITLE0=Water to Wine
TTITLE1=Dear Cocaine [w/ Kris Hutson]
TTITLE2=My Heart Laughs at Me
TTITLE3=Evenin' Train
TTITLE4=Runnin' after You
TTITLE5=This Town [w/ Olentangy John]
TTITLE6=Ramble On
TTITLE7=Song for the Dead
TTITLE8=Bad Man
TTITLE9=Long Ride to Lone Pine
TTITLE10=Ophelia
TTITLE11=Dear Mr. Roosevelt
TTITLE12=Get Back Satan
EXTD=Local artist from Los Angeles, CA
EXTT0=
EXTT1=
EXTT2=
EXTT3=
EXTT4=
EXTT5=
EXTT6=
EXTT7=
EXTT8=
EXTT9=
EXTT10=
EXTT11=
EXTT12=
PLAYORDER=
